<svg xmlns="http://www.w3.org/2000/svg" width="20.034" height="20.034" viewBox="0 0 20.034 20.034">
  <path id="statistics" d="M17.544,20.033H2.519A2.414,2.414,0,0,1,.748,19.3a2.408,2.408,0,0,1-.733-1.771V2.5A2.414,2.414,0,0,1,.749.734,2.41,2.41,0,0,1,2.519,0H17.545a2.414,2.414,0,0,1,1.771.734A2.41,2.41,0,0,1,20.049,2.5V17.53a2.5,2.5,0,0,1-2.5,2.5ZM6.275,14.4a.635.635,0,0,0-.626-.626H4.4a.635.635,0,0,0-.626.626v2.5a.635.635,0,0,0,.626.626H5.649a.635.635,0,0,0,.626-.626Zm5.008-5.008a.635.635,0,0,0-.626-.626H9.405a.635.635,0,0,0-.626.626V16.9a.635.635,0,0,0,.626.626h1.252a.635.635,0,0,0,.626-.626V9.391Zm5.008-6.26a.635.635,0,0,0-.626-.626H14.414a.635.635,0,0,0-.626.626V16.9a.635.635,0,0,0,.626.626h1.252a.635.635,0,0,0,.626-.626V3.13Z" transform="translate(-0.015)" fill="#165c98"/>
</svg>
