<svg height="88" viewBox="0 0 90 88" width="90" xmlns="http://www.w3.org/2000/svg"><g fill="#fff"><rect height="88" rx="15" width="90"/><g stroke="#82b5e1" stroke-dasharray="2 2" stroke-width=".5"><rect height="77" rx="11" stroke="none" width="78" x="6" y="6"/><rect fill="none" height="76.5" rx="10.75" width="77.5" x="6.25" y="6.25"/></g><rect height="88" rx="15" width="90"/><g stroke="#82b5e1" stroke-dasharray="2 2" stroke-width=".5"><rect height="77" rx="11" stroke="none" width="78" x="6" y="6"/><rect fill="none" height="76.5" rx="10.75" width="77.5" x="6.25" y="6.25"/></g></g><g opacity=".29" transform="translate(21.058 33.775)"><g transform="matrix(.97029573 .2419219 -.2419219 .97029573 32.628 .582)"><path d="m15.724 2.868v15.658a2.868 2.868 0 0 1 -2.868 2.868h-9.987a2.87 2.87 0 0 1 -2.869-2.868v-15.658a2.868 2.868 0 0 1 2.869-2.868h9.987a2.868 2.868 0 0 1 2.868 2.868z" fill="#eff7fd"/><path d="m14.87 4.427v3.792a2.868 2.868 0 0 1 -2.87 2.868h-9.985a2.854 2.854 0 0 1 -2.015-.828l4.782-5.727 3.418-4.098a1.208 1.208 0 0 1 1.7-.153z" fill="#2e73ba" transform="translate(.854 10.306)"/><path d="m5.635 1.67-4.781 5.73a2.853 2.853 0 0 1 -.854-2.043v-2.2l2.272-2.723a1.206 1.206 0 0 1 1.7-.153z" fill="#a3c4e4" transform="translate(0 13.169)"/><ellipse cx="6.23" cy="7.153" fill="#2e73ba" rx="2.059" ry="2.059"/></g><g transform="matrix(.92718385 -.37460659 .37460659 .92718385 0 5.89)"><path d="m15.724 2.868v15.657a2.868 2.868 0 0 1 -2.868 2.868h-9.987a2.87 2.87 0 0 1 -2.869-2.867v-15.658a2.868 2.868 0 0 1 2.869-2.868h9.987a2.868 2.868 0 0 1 2.868 2.868z" fill="#eff7fd"/><path d="m14.87 4.427v3.792a2.868 2.868 0 0 1 -2.87 2.868h-9.985a2.854 2.854 0 0 1 -2.015-.828l4.782-5.727 3.418-4.098a1.208 1.208 0 0 1 1.7-.153z" fill="#2e73ba" transform="translate(.854 10.306)"/><path d="m5.635 1.67-4.781 5.73a2.853 2.853 0 0 1 -.854-2.043v-2.2l2.272-2.723a1.206 1.206 0 0 1 1.7-.153z" fill="#a3c4e4" transform="translate(0 13.169)"/><ellipse cx="6.23" cy="7.153" fill="#2e73ba" rx="2.059" ry="2.059"/></g></g><path d="m-127.657 575.985v22.14a4.055 4.055 0 0 1 -4.055 4.055h-14.121a4.035 4.035 0 0 1 -2.85-1.17 4.034 4.034 0 0 1 -1.207-2.885v-22.14a4.055 4.055 0 0 1 4.057-4.055h14.121a4.055 4.055 0 0 1 4.055 4.055z" fill="#eff7fd" transform="translate(184.134 -543.43)"/><path d="m-122.634 653.411v5.362a4.055 4.055 0 0 1 -4.055 4.055h-14.121a4.036 4.036 0 0 1 -2.85-1.17l6.761-8.1 4.838-5.795a1.708 1.708 0 0 1 2.406-.217z" fill="#2e73ba" transform="translate(179.111 -604.079)"/><path d="m-141.922 670.4-6.761 8.1a4.033 4.033 0 0 1 -1.207-2.885v-3.115l3.212-3.847a1.706 1.706 0 0 1 2.4-.217z" fill="#a3c4e4" transform="translate(184.134 -620.922)"/><ellipse cx="43.053" cy="38.614" fill="#2e73ba" rx="2.911" ry="2.911"/><g opacity=".29" transform="translate(21.058 33.775)"><g transform="matrix(.97029573 .2419219 -.2419219 .97029573 32.628 .582)"><path d="m15.724 2.868v15.658a2.868 2.868 0 0 1 -2.868 2.868h-9.987a2.87 2.87 0 0 1 -2.869-2.868v-15.658a2.868 2.868 0 0 1 2.869-2.868h9.987a2.868 2.868 0 0 1 2.868 2.868z" fill="#eff7fd"/><path d="m14.87 4.427v3.792a2.868 2.868 0 0 1 -2.87 2.868h-9.985a2.854 2.854 0 0 1 -2.015-.828l4.782-5.727 3.418-4.098a1.208 1.208 0 0 1 1.7-.153z" fill="#2e73ba" transform="translate(.854 10.306)"/><path d="m5.635 1.67-4.781 5.73a2.853 2.853 0 0 1 -.854-2.043v-2.2l2.272-2.723a1.206 1.206 0 0 1 1.7-.153z" fill="#a3c4e4" transform="translate(0 13.169)"/><ellipse cx="6.23" cy="7.153" fill="#2e73ba" rx="2.059" ry="2.059"/></g><g transform="matrix(.92718385 -.37460659 .37460659 .92718385 0 5.89)"><path d="m15.724 2.868v15.657a2.868 2.868 0 0 1 -2.868 2.868h-9.987a2.87 2.87 0 0 1 -2.869-2.867v-15.658a2.868 2.868 0 0 1 2.869-2.868h9.987a2.868 2.868 0 0 1 2.868 2.868z" fill="#eff7fd"/><path d="m14.87 4.427v3.792a2.868 2.868 0 0 1 -2.87 2.868h-9.985a2.854 2.854 0 0 1 -2.015-.828l4.782-5.727 3.418-4.098a1.208 1.208 0 0 1 1.7-.153z" fill="#2e73ba" transform="translate(.854 10.306)"/><path d="m5.635 1.67-4.781 5.73a2.853 2.853 0 0 1 -.854-2.043v-2.2l2.272-2.723a1.206 1.206 0 0 1 1.7-.153z" fill="#a3c4e4" transform="translate(0 13.169)"/><ellipse cx="6.23" cy="7.153" fill="#2e73ba" rx="2.059" ry="2.059"/></g></g><path d="m-127.657 575.985v22.14a4.055 4.055 0 0 1 -4.055 4.055h-14.121a4.035 4.035 0 0 1 -2.85-1.17 4.034 4.034 0 0 1 -1.207-2.885v-22.14a4.055 4.055 0 0 1 4.057-4.055h14.121a4.055 4.055 0 0 1 4.055 4.055z" fill="#eff7fd" transform="translate(184.134 -543.43)"/><path d="m-122.634 653.411v5.362a4.055 4.055 0 0 1 -4.055 4.055h-14.121a4.036 4.036 0 0 1 -2.85-1.17l6.761-8.1 4.838-5.795a1.708 1.708 0 0 1 2.406-.217z" fill="#2e73ba" transform="translate(179.111 -604.079)"/><path d="m-141.922 670.4-6.761 8.1a4.033 4.033 0 0 1 -1.207-2.885v-3.115l3.212-3.847a1.706 1.706 0 0 1 2.4-.217z" fill="#a3c4e4" transform="translate(184.134 -620.922)"/><ellipse cx="43.053" cy="38.614" fill="#2e73ba" rx="2.911" ry="2.911"/></svg>