<?xml version="1.0" encoding="iso-8859-1"?>
<!-- Generator: Adobe Illustrator 16.0.0, SVG Export Plug-In . SVG Version: 6.00 Build 0)  -->
<!DOCTYPE svg PUBLIC "-//W3C//DTD SVG 1.1//EN" "http://www.w3.org/Graphics/SVG/1.1/DTD/svg11.dtd">
<svg version="1.1" id="Capa_1" xmlns="http://www.w3.org/2000/svg" xmlns:xlink="http://www.w3.org/1999/xlink" x="0px" y="0px"
	 width="92.034px" height="92.033px" viewBox="0 0 92.034 92.033" style="enable-background:new 0 0 92.034 92.033;"
	 xml:space="preserve">
<g>
	<path d="M51.667,42.247h-1.176V23.715h12.803c2.082,0,3.77-1.688,3.77-3.77c0-2.082-1.688-3.77-3.77-3.77H50.491V3.769
		C50.491,1.688,48.803,0,46.72,0s-3.77,1.688-3.77,3.769v12.407h-2.586c-9.267,0-16.805,7.539-16.805,16.805
		c0,9.267,7.538,16.804,16.805,16.804h2.586v18.531H28.738c-2.081,0-3.769,1.689-3.769,3.771c0,2.081,1.688,3.77,3.769,3.77h14.213
		v12.406c0,2.082,1.688,3.77,3.77,3.77s3.771-1.688,3.771-3.77V75.855h1.176c9.268,0,16.806-7.539,16.806-16.805
		C68.472,49.785,60.934,42.247,51.667,42.247z M31.098,32.981c0-5.109,4.158-9.266,9.267-9.266h2.586v18.532h-2.586
		C35.256,42.247,31.098,38.09,31.098,32.981z M51.667,68.316h-1.176V49.785h1.176c5.108,0,9.268,4.156,9.268,9.268
		C60.934,64.162,56.776,68.316,51.667,68.316z"/>
</g>
<g>
</g>
<g>
</g>
<g>
</g>
<g>
</g>
<g>
</g>
<g>
</g>
<g>
</g>
<g>
</g>
<g>
</g>
<g>
</g>
<g>
</g>
<g>
</g>
<g>
</g>
<g>
</g>
<g>
</g>
</svg>
