<svg xmlns="http://www.w3.org/2000/svg" width="25.778" height="25.778" viewBox="0 0 25.778 25.778">
  <g id="_81_Edit" data-name="81 Edit" transform="translate(-2.5 -2.372)">
    <path id="Path_887" data-name="Path 887" d="M22.929,28.255H5.826A3.326,3.326,0,0,1,2.5,24.929V7.826A3.326,3.326,0,0,1,5.826,4.5h8.552a1.425,1.425,0,1,1,0,2.851H5.826a.475.475,0,0,0-.475.475v17.1a.475.475,0,0,0,.475.475h17.1a.475.475,0,0,0,.475-.475V16.378a1.425,1.425,0,1,1,2.851,0v8.552a3.326,3.326,0,0,1-3.326,3.326Z" transform="translate(0 -0.106)" fill="#fff"/>
    <path id="Path_888" data-name="Path 888" d="M11.925,20.548a1.425,1.425,0,0,1-1.416-1.606l.532-4.143a1.444,1.444,0,0,1,.4-.827L21.76,3.662a3.981,3.981,0,1,1,5.625,5.625L17.075,19.607a1.444,1.444,0,0,1-.827.4l-4.143.532ZM16.068,18.6Zm-2.242-2.955-.238,1.834,1.815-.257,9.968-9.949a1.121,1.121,0,0,0,0-1.6,1.15,1.15,0,0,0-1.6,0Z" transform="translate(-0.398)" fill="#fff"/>
  </g>
</svg>
