<svg xmlns="http://www.w3.org/2000/svg" width="21.548" height="21.571" viewBox="0 0 21.548 21.571">
  <path id="home" d="M21.138,11.71a1.348,1.348,0,0,1-.989.41,1.331,1.331,0,0,1-.978-.4l-.316-.316v8.817a1.311,1.311,0,0,1-.389.947,1.285,1.285,0,0,1-.957.4h-4.04v-6.06a.683.683,0,0,0-.673-.673H8.754a.684.684,0,0,0-.673.673v6.061H4.04a1.285,1.285,0,0,1-.957-.4,1.309,1.309,0,0,1-.389-.947V11.4l-.316.316a1.331,1.331,0,0,1-.978.4,1.348,1.348,0,0,1-.989-.41A1.348,1.348,0,0,1,0,10.721a1.331,1.331,0,0,1,.4-.978L9.743.4A1.333,1.333,0,0,1,10.774,0a1.333,1.333,0,0,1,1.031.4l9.343,9.343a1.331,1.331,0,0,1,.4.978,1.348,1.348,0,0,1-.41.989Z" transform="translate(0 0.002)" fill="#165c98"/>
</svg>
