<svg height="19.886" viewBox="0 0 19.887 19.886" width="19.887" xmlns="http://www.w3.org/2000/svg"><g fill="#165c98"><path d="m12.429 10.776a.828.828 0 0 0 -.829.829v3.314a.829.829 0 0 1 -.829.829h-2.485v-12.43a1.67 1.67 0 0 0 -1.129-1.575l-.245-.082h3.86a.829.829 0 0 1 .829.829v2.485a.829.829 0 0 0 1.657 0v-2.485a2.489 2.489 0 0 0 -2.486-2.49h-8.908a.651.651 0 0 0 -.089.018c-.039.001-.075-.018-.118-.018a1.659 1.659 0 0 0 -1.657 1.661v14.915a1.67 1.67 0 0 0 1.129 1.575l4.987 1.662a1.716 1.716 0 0 0 .514.077 1.659 1.659 0 0 0 1.657-1.657v-.833h2.486a2.489 2.489 0 0 0 2.486-2.486v-3.314a.828.828 0 0 0 -.829-.829zm0 0" transform="translate(0 -.004)"/><path d="m286.2 110.223-3.315-3.314a.828.828 0 0 0 -1.414.586v2.486h-3.314a.829.829 0 1 0 0 1.657h3.314v2.486a.828.828 0 0 0 1.414.586l3.315-3.314a.828.828 0 0 0 0-1.173zm0 0" transform="translate(-266.56 -102.523)"/></g></svg>