<svg height="26.706" viewBox="0 0 89.255 26.706" width="89.255" xmlns="http://www.w3.org/2000/svg"><path d="m192.06 507.363h12.474v3.83h-7.407v3.113h6.327v3.6h-6.327v7.284h-5.067z" transform="translate(-191.727 -503.298)"/><path d="m227.795 507.363h5.046v13.437h5.866v4.39h-10.912z" transform="translate(-212.27 -503.298)"/><path d="m258.108 507.363h5.057v17.827h-5.057z" transform="translate(-229.696 -503.298)"/><path d="m321.449 524.474v-17.827h8.409a11.24 11.24 0 0 1 3.575.438 3.854 3.854 0 0 1 1.994 1.623 5.254 5.254 0 0 1 .757 2.888 5.364 5.364 0 0 1 -.441 2.568c-.386.717-1.1 1.9-1.85 2.086a3.136 3.136 0 0 1 2.086 2.236 18.709 18.709 0 0 1 .622 4.188 3.527 3.527 0 0 0 .267 1.8h-5.06l-.34-4.051a2.032 2.032 0 0 0 -1.738-2c-.455-.031-2.308-.076-2.768-.076h-.446v6.13zm5.068-10.05h2.224a7.236 7.236 0 0 0 1.4-.258 1.384 1.384 0 0 0 .856-.593 1.871 1.871 0 0 0 .332-1.1 1.83 1.83 0 0 0 -.524-1.405 2.936 2.936 0 0 0 -1.968-.49h-2.318z" transform="translate(-266.11 -502.886)"/><path d="m286.6 497.8h-8.685v22.2h6.908v-5.633h1.777a8.281 8.281 0 1 0 0-16.563zm1.564 8.9a2 2 0 0 1 -2 1.994h-1.344v-4.889h1.343a2 2 0 0 1 2 1.994z" transform="translate(-241.081 -497.801)"/><path d="m369.11 506.647a8.926 8.926 0 1 0 8.46 8.916 8.7 8.7 0 0 0 -8.46-8.916zm0 13.7c-1.917 0-3.469-2.142-3.469-4.786s1.552-4.786 3.469-4.786 3.473 2.142 3.473 4.786-1.552 4.787-3.473 4.787z" transform="translate(-288.648 -502.886)"/><path d="m289.694 503.524h-5.325v19.763h1.275v-7.456h4.049a6.154 6.154 0 1 0 0-12.307zm0 11.032h-4.049v-9.756h4.049a4.878 4.878 0 1 1 0 9.757z" fill="#61a2d9" transform="translate(-244.793 -501.091)"/><path d="m191.276 557.133v-2.5h1.29a1.884 1.884 0 0 1 .548.061.586.586 0 0 1 .306.228.708.708 0 0 1 -.217 1.011.947.947 0 0 1 -.272.1.528.528 0 0 1 .325.224.984.984 0 0 1 .108.156l.375.726h-.874l-.414-.766a.591.591 0 0 0 -.14-.193.325.325 0 0 0 -.19-.058h-.068v1.017zm.778-1.49h.326a1.2 1.2 0 0 0 .2-.034.208.208 0 0 0 .126-.079.233.233 0 0 0 .048-.145.23.23 0 0 0 -.077-.186.464.464 0 0 0 -.289-.065h-.34z" transform="translate(-191.276 -530.469)"/><path d="m198.967 554.628h2.075v.535h-1.3v.4h1.2v.51h-1.2v.495h1.336v.567h-2.112z" transform="translate(-195.697 -530.469)"/><path d="m206.244 554.628h.723l.943 1.386v-1.386h.73v2.5h-.73l-.938-1.376v1.376h-.728z" transform="translate(-199.881 -530.469)"/><path d="m214.176 555.824a1.186 1.186 0 0 1 1.294-1.3 1.31 1.31 0 0 1 .963.336 1.265 1.265 0 0 1 .338.94 1.543 1.543 0 0 1 -.148.721 1.056 1.056 0 0 1 -.427.437 1.412 1.412 0 0 1 -.7.156 1.6 1.6 0 0 1 -.7-.135 1.054 1.054 0 0 1 -.45-.427 1.416 1.416 0 0 1 -.17-.728zm.774 0a.84.84 0 0 0 .141.545.533.533 0 0 0 .77 0 .926.926 0 0 0 .137-.583.773.773 0 0 0 -.143-.516.488.488 0 0 0 -.387-.163.47.47 0 0 0 -.376.166.843.843 0 0 0 -.142.554z" transform="translate(-204.441 -530.411)"/><path d="m221.646 554.628h.809l.564 1.8.556-1.8h.785l-.93 2.5h-.839z" transform="translate(-208.735 -530.469)"/><path d="m230.674 556.719h-.874l-.122.414h-.79l.942-2.5h.844l.941 2.5h-.81zm-.161-.542-.276-.9-.273.9z" transform="translate(-212.895 -530.469)"/><path d="m236.213 554.628h2.353v.619h-.789v1.886h-.777v-1.886h-.789z" transform="translate(-217.109 -530.469)"/><path d="m243.883 554.628h2.074v.535h-1.3v.4h1.2v.51h-1.2v.495h1.336v.567h-2.112z" transform="translate(-221.519 -530.469)"/><path d="m255.222 554.628h.723l.943 1.386v-1.386h.73v2.5h-.73l-.938-1.376v1.376h-.728z" transform="translate(-228.037 -530.469)"/><path d="m263.154 555.824a1.186 1.186 0 0 1 1.293-1.3 1.31 1.31 0 0 1 .964.336 1.265 1.265 0 0 1 .338.94 1.542 1.542 0 0 1 -.148.721 1.056 1.056 0 0 1 -.427.437 1.411 1.411 0 0 1 -.7.156 1.6 1.6 0 0 1 -.7-.135 1.059 1.059 0 0 1 -.45-.427 1.415 1.415 0 0 1 -.17-.728zm.774 0a.84.84 0 0 0 .141.545.533.533 0 0 0 .77 0 .929.929 0 0 0 .136-.583.776.776 0 0 0 -.142-.516.488.488 0 0 0 -.387-.163.471.471 0 0 0 -.376.166.843.843 0 0 0 -.142.554z" transform="translate(-232.597 -530.411)"/><path d="m270.809 554.628h.735l.264 1.4.387-1.4h.733l.388 1.4.265-1.4h.731l-.552 2.5h-.76l-.439-1.577-.437 1.577h-.759z" transform="translate(-236.998 -530.469)"/><path d="m285.017 554.628h1.283a.88.88 0 0 1 .63.2.749.749 0 0 1 .209.569.772.772 0 0 1 -.228.593.987.987 0 0 1 -.7.213h-.423v.93h-.778zm.778 1.068h.19a.486.486 0 0 0 .314-.078.251.251 0 0 0 .091-.2.276.276 0 0 0 -.078-.2.407.407 0 0 0 -.3-.083h-.22z" transform="translate(-245.166 -530.469)"/><path d="m292.787 556.719h-.879l-.122.414h-.786l.942-2.5h.844l.941 2.5h-.81zm-.161-.542-.276-.9-.273.9z" transform="translate(-248.603 -530.469)"/><path d="m298.011 554.628h.86l.505.845.505-.845h.855l-.974 1.456v1.049h-.775v-1.049z" transform="translate(-252.636 -530.469)"/><path d="m309.78 554.628h.735l.264 1.4.387-1.4h.732l.389 1.4.265-1.4h.732l-.552 2.5h-.759l-.44-1.577-.437 1.577h-.759z" transform="translate(-259.401 -530.469)"/><path d="m319.943 554.628h.774v.876h.846v-.876h.777v2.5h-.777v-1.008h-.846v1.013h-.774z" transform="translate(-265.244 -530.469)"/><path d="m328.1 554.628h2.074v.535h-1.3v.4h1.2v.51h-1.2v.495h1.336v.567h-2.11z" transform="translate(-269.935 -530.469)"/><path d="m335.382 554.628h.722l.943 1.386v-1.386h.73v2.5h-.73l-.938-1.376v1.376h-.728z" transform="translate(-274.119 -530.469)"/><path d="m347.009 554.628h.86l.505.845.505-.845h.855l-.974 1.456v1.049h-.775v-1.049z" transform="translate(-280.803 -530.469)"/><path d="m354.6 555.824a1.185 1.185 0 0 1 1.293-1.3 1.31 1.31 0 0 1 .963.336 1.265 1.265 0 0 1 .338.94 1.548 1.548 0 0 1 -.148.721 1.056 1.056 0 0 1 -.427.437 1.412 1.412 0 0 1 -.7.156 1.6 1.6 0 0 1 -.7-.135 1.058 1.058 0 0 1 -.451-.427 1.419 1.419 0 0 1 -.168-.728zm.774 0a.838.838 0 0 0 .141.545.533.533 0 0 0 .769 0 .929.929 0 0 0 .137-.583.773.773 0 0 0 -.143-.516.488.488 0 0 0 -.387-.163.47.47 0 0 0 -.376.166.84.84 0 0 0 -.141.554z" transform="translate(-285.167 -530.411)"/><path d="m364.634 554.628h.772v1.492a1.252 1.252 0 0 1 -.069.419.907.907 0 0 1 -.217.345.868.868 0 0 1 -.31.207 1.551 1.551 0 0 1 -.541.084 3.406 3.406 0 0 1 -.4-.026 1.033 1.033 0 0 1 -.361-.1.9.9 0 0 1 -.266-.216.8.8 0 0 1 -.165-.289 1.5 1.5 0 0 1 -.072-.423v-1.492h.772v1.528a.437.437 0 0 0 .114.32.49.49 0 0 0 .629 0 .436.436 0 0 0 .114-.322z" transform="translate(-290 -530.469)"/><path d="m374.919 556.246.736-.046a.562.562 0 0 0 .1.273.409.409 0 0 0 .342.153.377.377 0 0 0 .255-.078.223.223 0 0 0 0-.355.992.992 0 0 0 -.4-.145 1.684 1.684 0 0 1 -.726-.3.613.613 0 0 1 -.218-.484.656.656 0 0 1 .111-.364.739.739 0 0 1 .337-.27 1.566 1.566 0 0 1 .616-.1 1.26 1.26 0 0 1 .732.179.771.771 0 0 1 .3.568l-.729.043a.342.342 0 0 0 -.38-.323.309.309 0 0 0 -.2.057.176.176 0 0 0 -.068.139.139.139 0 0 0 .057.108.63.63 0 0 0 .26.092 3.261 3.261 0 0 1 .727.221.768.768 0 0 1 .32.278.7.7 0 0 1 .1.371.794.794 0 0 1 -.134.444.834.834 0 0 1 -.373.309 1.5 1.5 0 0 1 -.6.1 1.242 1.242 0 0 1 -.885-.246.972.972 0 0 1 -.28-.624z" transform="translate(-296.848 -530.411)"/><path d="m382.494 554.628h2.074v.535h-1.3v.4h1.2v.51h-1.2v.495h1.336v.567h-2.112z" transform="translate(-301.203 -530.469)"/><path d="m389.759 554.628h.774v1.888h1.208v.617h-1.982z" transform="translate(-305.379 -530.469)"/><path d="m396.566 554.628h.774v1.888h1.208v.617h-1.982z" transform="translate(-309.293 -530.469)"/></svg>