<svg viewBox="0 0 834.06 197.68" xmlns="http://www.w3.org/2000/svg"><g fill="#fff"><path d="m0 36.21h111.08v34.1h-66v27.69h56.34v32.06h-56.3v64.94h-45.12z"/><path d="m135.28 36.21h44.93v119.65h52.24v39.14h-97.17z"/><path d="m250 36.21h45v158.79h-45z"/><path d="m489.81 192.24v-158.74h74.88a100.23 100.23 0 0 1 31.84 3.9 34.31 34.31 0 0 1 17.75 14.45 46.73 46.73 0 0 1 6.72 25.72 47.89 47.89 0 0 1 -3.92 22.87c-3.44 6.38-9.8 16.92-16.48 18.57a27.94 27.94 0 0 1 18.58 19.91 166.7 166.7 0 0 1 5.54 37.3 31.32 31.32 0 0 0 2.37 16h-45.03l-3-36.07a18.1 18.1 0 0 0 -15.48-17.81c-4-.27-20.55-.68-24.65-.68h-4v54.59zm45.13-89.49h19.8a63.57 63.57 0 0 0 12.47-2.3 12.28 12.28 0 0 0 7.62-5.28 16.61 16.61 0 0 0 3-9.79 16.27 16.27 0 0 0 -4.67-12.51 26.15 26.15 0 0 0 -17.56-4.37h-20.6z"/><path d="m402.37 0h-77.37v197.68h61.51v-50.16h15.83a73.74 73.74 0 1 0 .03-147.52zm13.92 79.25a17.8 17.8 0 0 1 -17.8 17.75h-12v-43.53h12a17.81 17.81 0 0 1 17.81 17.76z"/><path d="m713.52 33.5a79.48 79.48 0 1 0 75.23 83.5c.07-1.37.11-2.75.11-4.13a77.47 77.47 0 0 0 -75.34-79.37zm0 122c-17.07 0-30.89-19.07-30.89-42.61s13.82-42.62 30.89-42.62 30.93 19.07 30.93 42.62-13.82 42.62-30.93 42.62z"/></g><path d="m396.86 21.67h-47.41v176h11.35v-66.4h36.06a54.8 54.8 0 0 0 1.39-109.59zm0 98.24h-36.05v-86.91h36.05a43.44 43.44 0 1 1 0 86.88z" fill="#61a2d9"/><path d="m834.06 47.32a22.29 22.29 0 0 1 -44.57 0c0-12 9.92-21.69 22.35-21.69s22.22 9.66 22.22 21.69zm-39 0c-.06 9.68 7.13 17.33 16.94 17.33 9.53 0 16.54-7.67 16.54-17.19s-7.04-17.46-16.7-17.46-16.84 7.8-16.84 17.32zm13.34 11.38h-5v-21.7a44.59 44.59 0 0 1 8.34-.66c4.09 0 5.95.66 7.54 1.59a6 6 0 0 1 2.11 4.76c0 2.38-1.85 4.23-4.49 5v.31c2.11.8 3.31 2.39 4 5.29.67 3.31 1.06 4.63 1.6 5.43h-5.5c-.66-.8-1.06-2.78-1.72-5.29-.39-2.38-1.72-3.44-4.5-3.44h-2.38zm.13-12.3h2.38c2.78 0 5-.93 5-3.18 0-2-1.45-3.31-4.63-3.31a12.13 12.13 0 0 0 -2.78.27z" fill="#fff"/></svg>