<svg height="48.073" viewBox="0 0 191.87 48.073" width="191.87" xmlns="http://www.w3.org/2000/svg"><g fill="#fff"><path d="m192.06 507.363h27.018v8.3h-16.043v6.737h13.7v7.8h-13.7v15.776h-10.975z" transform="translate(-192.06 -498.559)"/><path d="m227.795 507.363h10.928v29.1h12.7v9.508h-23.628z" transform="translate(-194.892 -498.559)"/><path d="m258.108 507.363h10.952v38.611h-10.952z" transform="translate(-197.294 -498.559)"/><path d="m321.449 545.258v-38.611h18.213a24.341 24.341 0 0 1 7.743.948 8.347 8.347 0 0 1 4.318 3.515 11.38 11.38 0 0 1 1.64 6.256 11.619 11.619 0 0 1 -.956 5.561c-.837 1.553-2.381 4.115-4.007 4.518 3.649.955 4.519 4.843 4.519 4.843a40.519 40.519 0 0 1 1.347 9.07 7.639 7.639 0 0 0 .579 3.9h-10.96l-.737-8.775a4.4 4.4 0 0 0 -3.764-4.338c-.986-.067-5-.164-6-.164h-.965v13.276zm10.976-21.767h4.817a15.664 15.664 0 0 0 3.027-.559 3 3 0 0 0 1.854-1.283 4.052 4.052 0 0 0 .719-2.375 3.963 3.963 0 0 0 -1.134-3.043q-1.135-1.061-4.263-1.061h-5.02z" transform="translate(-202.314 -498.502)"/><path d="m296.723 497.8h-18.811v48.072h14.962v-12.2h3.849a17.936 17.936 0 1 0 0-35.872zm3.388 19.281a4.327 4.327 0 0 1 -4.328 4.318h-2.91v-10.588h2.91a4.327 4.327 0 0 1 4.328 4.318z" transform="translate(-198.864 -497.801)"/><path d="m378.968 506.647c-10.11 0-18.314 8.645-18.314 19.31s8.2 19.3 18.314 19.3 18.323-8.637 18.323-19.3-8.204-19.31-18.323-19.31zm0 29.675c-4.153 0-7.513-4.639-7.513-10.365s3.361-10.366 7.513-10.366 7.522 4.64 7.522 10.366-3.36 10.365-7.522 10.365z" transform="translate(-205.421 -498.502)"/></g><path d="m295.9 503.524h-11.531v42.8h2.762v-16.144h8.77a13.328 13.328 0 0 0 0-26.656zm0 23.894h-8.77v-21.132h8.77a10.566 10.566 0 0 1 0 21.131z" fill="#61a2d9" transform="translate(-199.376 -498.254)"/></svg>