<svg viewBox="0 0 837.02 237.87" xmlns="http://www.w3.org/2000/svg"><path d="m3 36.21h111v34.1h-65.91v27.69h56.34v32.06h-56.34v64.94h-45.09z" fill="#fff"/><path d="m138.25 36.21h44.93v119.65h52.23v39.14h-97.16z" fill="#fff"/><path d="m253 36.21h45v158.79h-45z" fill="#fff"/><path d="m492.78 192.24v-158.74h74.88a100.13 100.13 0 0 1 31.83 3.9 34.29 34.29 0 0 1 17.76 14.45 46.81 46.81 0 0 1 6.75 25.72 47.78 47.78 0 0 1 -3.93 22.87c-3.44 6.38-9.79 16.92-16.47 18.57a27.93 27.93 0 0 1 18.57 19.91 166.7 166.7 0 0 1 5.54 37.3 31.43 31.43 0 0 0 2.38 16h-45.09l-3-36.07a18.09 18.09 0 0 0 -15.47-17.81c-4-.27-20.56-.68-24.65-.68h-4v54.59zm45.13-89.49h19.8a63.7 63.7 0 0 0 12.47-2.3 12.31 12.31 0 0 0 7.62-5.28 16.68 16.68 0 0 0 3-9.79 16.3 16.3 0 0 0 -4.67-12.51 26.16 26.16 0 0 0 -17.52-4.37h-20.69z" fill="#fff"/><path d="m405.33 0h-77.33v197.68h61.51v-50.16h15.82a73.74 73.74 0 1 0 0-147.52zm13.93 79.25a17.81 17.81 0 0 1 -17.81 17.75h-12v-43.53h12a17.81 17.81 0 0 1 17.81 17.76z" fill="#fff"/><path d="m716.49 33.5a79.48 79.48 0 1 0 75.23 83.5c.07-1.37.1-2.75.1-4.13a77.46 77.46 0 0 0 -75.33-79.37zm0 122c-17.07 0-30.89-19.07-30.89-42.61s13.82-42.62 30.89-42.62 30.93 19.07 30.93 42.62-13.82 42.61-30.93 42.61z" fill="#fff"/><path d="m399.83 21.67h-47.42v176h11.36v-66.4h36.05a54.8 54.8 0 0 0 1.39-109.59h-1.38zm0 98.24h-36.06v-86.91h36.06a43.44 43.44 0 0 1 0 86.88z" fill="#61a2d9"/><g fill="#fff"><path d="m0 237.44v-22.26h11.49a17.09 17.09 0 0 1 4.88.54 5.19 5.19 0 0 1 2.72 2 6.3 6.3 0 0 1 -1.58 8.77l-.35.23a8.39 8.39 0 0 1 -2.42.89 4.7 4.7 0 0 1 2.89 2 8.2 8.2 0 0 1 1 1.39l3.34 6.47h-7.82l-3.69-6.82a5.19 5.19 0 0 0 -1.24-1.65 2.87 2.87 0 0 0 -1.7-.52h-.6v9.06zm6.93-13.26h2.9a10.69 10.69 0 0 0 1.78-.31 1.85 1.85 0 0 0 1.12-.7 2 2 0 0 0 .43-1.29 2 2 0 0 0 -.68-1.66 4.18 4.18 0 0 0 -2.58-.58h-3z"/><path d="m29.12 215.14h18.48v4.76h-11.6v3.56h10.7v4.54h-10.7v4.41h11.9v5.05h-18.79z"/><path d="m56.66 215.14h6.44l8.4 12.34v-12.34h6.5v22.26h-6.5l-8.36-12.25v12.25h-6.48z"/><path d="m86.69 226.3a10.56 10.56 0 0 1 9.44-11.57 10.33 10.33 0 0 1 2.08 0 11.7 11.7 0 0 1 8.58 3 11.29 11.29 0 0 1 3 8.37 13.66 13.66 0 0 1 -1.31 6.42 9.4 9.4 0 0 1 -3.81 3.89 12.59 12.59 0 0 1 -6.23 1.39 14.34 14.34 0 0 1 -6.23-1.2 9.43 9.43 0 0 1 -4-3.8 12.55 12.55 0 0 1 -1.52-6.5zm6.89 0a7.48 7.48 0 0 0 1.26 4.86 4.74 4.74 0 0 0 6.71.14l.14-.14a8.26 8.26 0 0 0 1.22-5.19 6.86 6.86 0 0 0 -1.27-4.6 4.35 4.35 0 0 0 -3.45-1.45 4.19 4.19 0 0 0 -3.35 1.48 7.48 7.48 0 0 0 -1.26 4.93z"/><path d="m115 215.14h7.2l5 16 5-16h7l-8.29 22.26h-7.47z"/><path d="m158.32 233.76h-7.79l-1.08 3.68h-7l8.39-22.26h7.52l8.38 22.26h-7.22zm-1.44-4.83-2.45-8-2.44 8z"/><path d="m170.12 215.14h20.95v5.51h-7v16.79h-6.92v-16.79h-7z"/><path d="m199.14 215.14h18.47v4.76h-11.61v3.56h10.68v4.54h-10.68v4.41h11.89v5.05h-18.8z"/><path d="m242.07 215.14h6.44l8.4 12.34v-12.34h6.5v22.26h-6.5l-8.35-12.25v12.25h-6.49z"/><path d="m272.1 226.3a10.56 10.56 0 0 1 9.44-11.57 10.23 10.23 0 0 1 2.07 0 11.64 11.64 0 0 1 8.59 3 11.26 11.26 0 0 1 3 8.37 13.79 13.79 0 0 1 -1.32 6.42 9.43 9.43 0 0 1 -3.8 3.89 12.63 12.63 0 0 1 -6.24 1.39 14.34 14.34 0 0 1 -6.23-1.2 9.48 9.48 0 0 1 -4-3.8 12.65 12.65 0 0 1 -1.51-6.5zm6.89 0a7.48 7.48 0 0 0 1.26 4.86 4.74 4.74 0 0 0 6.71.14l.14-.14a8.26 8.26 0 0 0 1.22-5.19 7 7 0 0 0 -1.27-4.6 4.34 4.34 0 0 0 -3.44-1.45 4.17 4.17 0 0 0 -3.35 1.48 7.49 7.49 0 0 0 -1.27 4.93z"/><path d="m301.08 215.14h6.54l2.38 12.46 3.45-12.46h6.55l3.45 12.46 2.36-12.46h6.51l-4.92 22.26h-6.76l-3.91-14-3.89 14h-6.84z"/><path d="m354.86 215.14h11.43a7.83 7.83 0 0 1 5.61 1.78 6.69 6.69 0 0 1 1.86 5.06 6.91 6.91 0 0 1 -2 5.29 8.83 8.83 0 0 1 -6.24 1.89h-3.76v8.28h-6.96zm6.93 9.51h1.69a4.33 4.33 0 0 0 2.8-.7 2.21 2.21 0 0 0 .81-1.78 2.43 2.43 0 0 0 -.7-1.78 3.61 3.61 0 0 0 -2.67-.74h-2z"/><path d="m393.45 233.76h-7.83l-1.09 3.68h-7l8.39-22.26h7.52l8.38 22.26h-7.22zm-1.45-4.83-2.46-8-2.43 8z"/><path d="m404.05 215.14h7.66l4.5 7.52 4.49-7.52h7.62l-8.68 13v9.34h-6.9v-9.38z"/><path d="m448.61 215.14h6.54l2.36 12.46 3.49-12.46h6.52l3.46 12.46 2.36-12.46h6.52l-4.96 22.26h-6.76l-3.92-14-3.89 14h-6.76z"/><path d="m487.08 215.14h6.92v7.8h7.53v-7.8h6.92v22.26h-6.95v-9h-7.5v9h-6.89z"/><path d="m517.94 215.14h18.47v4.76h-11.58v3.56h10.69v4.54h-10.69v4.41h11.9v5.05h-18.79z"/><path d="m545.53 215.14h6.47l8.39 12.34v-12.34h6.51v22.26h-6.51l-8.39-12.25v12.25h-6.48z"/><path d="m589.54 215.14h7.66l4.5 7.52 4.5-7.52h7.61l-8.67 13v9.34h-6.9v-9.38z"/><path d="m618.28 226.3a10.56 10.56 0 0 1 9.42-11.57 10.43 10.43 0 0 1 2.09 0 11.7 11.7 0 0 1 8.58 3 11.26 11.26 0 0 1 3 8.37 13.79 13.79 0 0 1 -1.32 6.42 9.43 9.43 0 0 1 -3.8 3.89 12.62 12.62 0 0 1 -6.23 1.39 14.36 14.36 0 0 1 -6.24-1.2 9.37 9.37 0 0 1 -4-3.8 12.64 12.64 0 0 1 -1.5-6.5zm6.89 0a7.48 7.48 0 0 0 1.26 4.86 4.74 4.74 0 0 0 6.71.13l.14-.13a8.39 8.39 0 0 0 1.22-5.16 6.92 6.92 0 0 0 -1.28-4.6 4.34 4.34 0 0 0 -3.44-1.45 4.17 4.17 0 0 0 -3.35 1.48 7.43 7.43 0 0 0 -1.26 4.93z"/><path d="m664.59 215.14h6.88v13.28a11 11 0 0 1 -.62 3.73 8.08 8.08 0 0 1 -1.93 3.08 7.82 7.82 0 0 1 -2.76 1.84 13.85 13.85 0 0 1 -4.82.75 32.56 32.56 0 0 1 -3.56-.23 9.14 9.14 0 0 1 -3.21-.89 8 8 0 0 1 -2.37-1.93 7 7 0 0 1 -1.47-2.57 13.42 13.42 0 0 1 -.64-3.77v-13.28h6.91v13.6a3.88 3.88 0 0 0 1 2.85 4.35 4.35 0 0 0 5.6 0 3.88 3.88 0 0 0 1-2.87z"/><path d="m695.2 230.06 6.55-.41a5 5 0 0 0 .89 2.43 3.67 3.67 0 0 0 3.05 1.37 3.39 3.39 0 0 0 2.27-.7 2 2 0 0 0 .38-2.78 2.28 2.28 0 0 0 -.38-.38 8.94 8.94 0 0 0 -3.56-1.29 15.13 15.13 0 0 1 -6.47-2.67 5.47 5.47 0 0 1 -1.94-4.31 5.83 5.83 0 0 1 1-3.24 6.57 6.57 0 0 1 3-2.41 14.08 14.08 0 0 1 5.49-.89 11.21 11.21 0 0 1 6.51 1.6 6.86 6.86 0 0 1 2.68 5.05l-6.5.39a3.05 3.05 0 0 0 -3.19-2.9h-.19a2.77 2.77 0 0 0 -1.78.51 1.56 1.56 0 0 0 -.61 1.24 1.27 1.27 0 0 0 .51 1 5.61 5.61 0 0 0 2.32.82 29.28 29.28 0 0 1 6.47 2 6.91 6.91 0 0 1 2.85 2.48 6.2 6.2 0 0 1 .89 3.3 7.14 7.14 0 0 1 -1.19 4 7.49 7.49 0 0 1 -3.32 2.75 13.39 13.39 0 0 1 -5.35.89 11.08 11.08 0 0 1 -7.88-2.19 8.7 8.7 0 0 1 -2.5-5.66z"/><path d="m723.87 215.14h18.47v4.76h-11.58v3.56h10.69v4.54h-10.69v4.41h11.9v5.05h-18.81z"/><path d="m751.38 215.14h6.89v16.86h10.73v5.49h-17.62z"/><path d="m777.14 215.14h6.86v16.86h10.76v5.49h-17.62z"/><path d="m837 47.32a22.28 22.28 0 0 1 -44.56 0c0-12 9.92-21.69 22.35-21.69s22.21 9.66 22.21 21.69zm-39 0c0 9.66 7.15 17.33 16.93 17.33 9.54 0 16.55-7.67 16.55-17.19s-7.01-17.46-16.67-17.46-16.81 7.8-16.81 17.32zm13.37 11.38h-5v-21.7a44.51 44.51 0 0 1 8.34-.66c4.09 0 5.94.66 7.54 1.59a6 6 0 0 1 2.11 4.76c0 2.38-1.86 4.23-4.5 5v.31c2.12.8 3.31 2.39 4 5.29.67 3.31 1.05 4.63 1.59 5.43h-5.45c-.65-.8-1.05-2.78-1.72-5.29-.43-2.43-1.75-3.43-4.53-3.43h-2.38zm.13-12.3h2.38c2.78 0 5-.93 5-3.18 0-2-1.46-3.31-4.63-3.31a12.06 12.06 0 0 0 -2.78.27z"/></g></svg>