<svg height="25.427" viewBox="0 0 20.074 25.427" width="20.074" xmlns="http://www.w3.org/2000/svg"><path d="m24.4 11.03h-6.687a.669.669 0 0 1 -.669-.669v-7.361h-11.375a.669.669 0 0 0 -.669.669v24.089a.669.669 0 0 0 .669.669h18.731a.669.669 0 0 0 .669-.669v-16.728zm-8.03 12.044h-5.348a.669.669 0 1 1 0-1.338h5.353a.669.669 0 1 1 0 1.338zm2.677-4.015h-8.03a.669.669 0 1 1 0-1.338h8.03a.669.669 0 1 1 0 1.338zm0-4.015h-8.03a.669.669 0 1 1 0-1.338h8.03a.669.669 0 1 1 0 1.338zm5.353-5.353h-6.017v-6.3l6.29 6.3z" fill="#fff" transform="translate(-5 -3)"/></svg>