<svg height="13.486" viewBox="0 0 13.273 13.486" width="13.273" xmlns="http://www.w3.org/2000/svg"><path d="m9.144 7.24a3.667 3.667 0 0 0 .133 1.213c-1.4 1.641-5.431 6.307-5.431 6.307l.094 1.177s1.128 1.07 1.3.908c.5-.486.8-.817.8-.817l.235-1.406 1.525-.113.123-1.518 1.609-.031.016-1.624 1.709.068.292-.611a3.652 3.652 0 0 0 1.547.3 3.946 3.946 0 0 0 4.021-3.865 3.942 3.942 0 0 0 -4.017-3.853 3.886 3.886 0 0 0 -3.956 3.865zm6.12-.752a1.258 1.258 0 1 1 -.364-.888 1.26 1.26 0 0 1 .369.891z" fill="#82b5e1" transform="translate(-3.846 -3.375)"/></svg>