<svg height="16.601" viewBox="0 0 16.601 16.601" width="16.601" xmlns="http://www.w3.org/2000/svg"><path d="m8.3 0a8.116 8.116 0 0 1 3.224.658 8.154 8.154 0 0 1 4.419 4.419 8.235 8.235 0 0 1 0 6.438 8.274 8.274 0 0 1 -1.765 2.65 8.4 8.4 0 0 1 -2.65 1.774 8.25 8.25 0 0 1 -6.466 0 8.238 8.238 0 0 1 -2.645-1.774 8.457 8.457 0 0 1 -1.759-2.645 8.217 8.217 0 0 1 0-6.443 8.154 8.154 0 0 1 4.419-4.419 8.116 8.116 0 0 1 3.223-.658zm5.734 12.516a7 7 0 0 0 1.381-4.216 6.925 6.925 0 0 0 -.565-2.76 7.031 7.031 0 0 0 -3.789-3.79 7.029 7.029 0 0 0 -5.522 0 7.031 7.031 0 0 0 -3.789 3.79 6.921 6.921 0 0 0 -.565 2.76 7.005 7.005 0 0 0 1.38 4.215q.612-3.028 2.835-3.028a4 4 0 0 0 2.9 1.186 4 4 0 0 0 2.9-1.186q2.223 0 2.835 3.029zm-2.176-5.994a3.427 3.427 0 0 0 -1.042-2.515 3.427 3.427 0 0 0 -2.516-1.042 3.427 3.427 0 0 0 -2.515 1.042 3.427 3.427 0 0 0 -1.042 2.515 3.427 3.427 0 0 0 1.042 2.515 3.427 3.427 0 0 0 2.515 1.042 3.427 3.427 0 0 0 2.515-1.042 3.427 3.427 0 0 0 1.042-2.515z" fill="#82b5e1"/></svg>