<svg xmlns="http://www.w3.org/2000/svg" width="14.706" height="14.402" viewBox="0 0 14.706 14.402">
  <path id="phone-handset-solid" d="M9.657,9.575a8.8,8.8,0,0,1-3.2,2.068l-1.628-1.3a.289.289,0,0,0-.328,0L1.483,12.3a.864.864,0,0,0-.143,1.373l1.416,1.4a1.727,1.727,0,0,0,1.568.462,15.153,15.153,0,0,0,7.406-3.886,14.592,14.592,0,0,0,4-7.268,1.632,1.632,0,0,0-.475-1.533L13.79,1.426a.864.864,0,0,0-1.347.138L10.43,4.548a.272.272,0,0,0,0,.324l1.326,1.593a8.529,8.529,0,0,1-2.1,3.109Z" transform="translate(-1.064 -1.165)" fill="#82b5e1"/>
</svg>
