<svg height="22" viewBox="0 0 20.898 22" width="20.898" xmlns="http://www.w3.org/2000/svg"><path d="m18.96 10c-1.408-5.8-5.093-7.842-5.247-7.93a.561.561 0 0 0 -.528 0c-.187.11-3.883 2.2-5.269 7.952-1.33 1.085-4.916 4.253-4.916 6.827a.55.55 0 0 0 .55.55h3.85v1.65a.55.55 0 0 0 .55.55h11a.55.55 0 0 0 .55-.55v-1.649h3.85a.55.55 0 0 0 .55-.55c0-2.586-3.62-5.765-4.94-6.85zm-4.411 6.3h-2.2a.55.55 0 0 1 0-1.1h2.2a.55.55 0 1 1 0 1.1zm-1.1-2.2a2.75 2.75 0 1 1 2.75-2.75 2.75 2.75 0 0 1 -2.75 2.75zm4.4 6.6a.55.55 0 0 0 -.55.55v1.1a.55.55 0 1 0 1.1 0v-1.1a.55.55 0 0 0 -.55-.55zm-8.8 0a.55.55 0 0 0 -.55.55v1.1a.55.55 0 1 0 1.1 0v-1.1a.55.55 0 0 0 -.549-.55zm4.037 3.157a.528.528 0 0 0 .726 0 8.26 8.26 0 0 0 2.088-3.157h-4.9a8.26 8.26 0 0 0 2.09 3.157z" fill="#165c98" transform="translate(-3 -2)"/></svg>