<svg height="21.397" viewBox="0 0 18.525 21.397" width="18.525" xmlns="http://www.w3.org/2000/svg"><path d="m24.6 15.888a3.294 3.294 0 1 0 -3.3-3.294 3.257 3.257 0 0 0 .237 1.208l-6.543 3.8a3.3 3.3 0 1 0 .025 4.607l6.489 4.09a3.253 3.253 0 0 0 -.208 1.101 3.317 3.317 0 1 0 .9-2.251l-3.15-1.986-3.322-2.094a3.164 3.164 0 0 0 -.011-2.35l6.55-3.8a3.274 3.274 0 0 0 2.325.965zm0 9.558a1.957 1.957 0 1 1 -1.961 1.954 1.934 1.934 0 0 1 .274-.982c.005-.007.012-.013.017-.021s.007-.025.014-.036a1.949 1.949 0 0 1 1.656-.914zm-11.942-3.573a1.957 1.957 0 1 1 1.558-3.128.519.519 0 0 0 .022.064.653.653 0 0 0 .114.144 1.906 1.906 0 0 1 -.043 2s0 .008 0 .012a1.954 1.954 0 0 1 -1.641.9zm11.942-11.235a1.957 1.957 0 1 1 -1.961 1.962 1.959 1.959 0 0 1 1.961-1.962z" fill="#fff" transform="translate(-9.365 -9.3)"/></svg>